<svg height="512pt" viewBox="0 0 512 512" width="512pt" xmlns="http://www.w3.org/2000/svg"><path d="m256 181c-16.554688 0-30 13.460938-30 30s13.445312 30 30 30 30-13.460938 30-30-13.445312-30-30-30zm0 0"/><path d="m256 301c-33.074219 0-60 26.910156-60 60v48.539062c18.625 7.304688 38.816406 11.460938 60 11.460938s41.375-4.15625 60-11.460938v-48.539062c0-33.089844-26.925781-60-60-60zm0 0"/><path d="m452 392c-11.09375 0-21.363281 3.234375-30.285156 8.503906l-39.246094-39.234375c23.890625-28.601562 38.53125-65.167969 38.53125-105.269531 0-40.105469-14.410156-76.886719-38.289062-105.511719l39.003906-38.992187c8.921875 5.269531 19.191406 8.503906 30.285156 8.503906 33.074219 0 60-26.910156 60-60s-26.925781-60-60-60-60 26.910156-60 60c0 11.09375 3.230469 21.363281 8.503906 30.285156l-39.007812 38.996094c-28.625-23.871094-65.402344-38.28125-105.496094-38.28125s-76.871094 14.410156-105.496094 38.28125l-39.007812-38.996094c5.273437-8.921875 8.503906-19.191406 8.503906-30.285156 0-33.089844-26.925781-60-60-60s-60 26.910156-60 60 26.925781 60 60 60c11.09375 0 21.363281-3.234375 30.285156-8.503906l39.003906 38.992187c-23.878906 28.625-38.289062 65.40625-38.289062 105.511719 0 40.101562 14.640625 76.667969 38.53125 105.269531l-39.242188 39.234375c-8.925781-5.269531-19.195312-8.503906-30.289062-8.503906-33.074219 0-60 26.910156-60 60s26.925781 60 60 60 60-26.910156 60-60c0-11.09375-3.230469-21.363281-8.503906-30.285156l39.089844-39.074219c4.917968 4.09375 10.039062 7.953125 15.414062 11.46875v-33.109375c0-49.628906 40.371094-90 90-90-33.074219 0-60-26.910156-60-60s26.925781-60 60-60 60 26.910156 60 60-26.925781 60-60 60c49.628906 0 90 40.371094 90 90v33.109375c5.375-3.515625 10.496094-7.375 15.414062-11.46875l39.089844 39.074219c-5.273437 8.921875-8.503906 19.191406-8.503906 30.285156 0 33.089844 26.925781 60 60 60s60-26.910156 60-60-26.925781-60-60-60zm0 0"/></svg>